# File created by Blade
# Date/Time:  Thu Jan 22 19:34:15 2015
# Frame Rate: 120.000 fps
#------------------------------------------------------
:FULLY-SPECIFIED
:DEGREES
827
root -13.736751 14.717650 -9.289600 23.496937 -29.171298 27.572839
RightUpLeg -127.866373 -24.412530 -6.305409
RightLeg 137.232391 -0.000000 -0.000000
RightFoot -45.787896 -9.598959 6.242505
RightToeBase -2.233839 -0.000000 0.000000
LeftUpLeg -11.922095 36.823884 25.297725
LeftLeg 4.404481 -0.000000 -0.000000
LeftFoot -5.603287 13.030771 -42.387158
LeftToeBase 20.440724 -0.000000 -0.000000
Spine 13.619580 8.629536 27.855537
RightShoulder -2.226140 0.226118 -11.587501
RightArm 15.257240 41.132679 79.420566
RightForeArm -26.602075 0.000000 35.935573
RightHand 29.079821 -0.000000 -89.493797
RightHandThumb1 -24.326973 -0.000000 -32.862282
LeftShoulder -30.993891 -14.519462 64.090048
LeftArm 65.393673 -55.644580 -29.207311
LeftForeArm 21.099831 -0.000000 12.702629
LeftHand -0.103053 -0.000000 18.466793
LeftHandThumb1 -26.253704 0.000000 33.147579
Head 7.119075 39.038378 48.820600
828
root -13.737120 14.713368 -9.282457 23.480775 -29.187255 27.620014
RightUpLeg -127.888911 -24.432649 -6.341698
RightLeg 137.262033 -0.000000 -0.000000
RightFoot -45.798274 -9.547625 6.297112
RightToeBase -2.304397 -0.000000 0.000000
LeftUpLeg -11.893677 36.809420 25.260339
LeftLeg 4.375929 -0.000000 -0.000000
LeftFoot -5.612855 13.017069 -42.498103
LeftToeBase 20.403615 -0.000000 -0.000000
Spine 13.667356 8.657483 27.871474
RightShoulder -2.268194 0.154181 -11.624402
RightArm 15.244033 41.243819 79.570479
RightForeArm -26.741810 -0.000000 36.261640
RightHand 28.982623 -0.000000 -89.279606
RightHandThumb1 -24.326973 -0.000000 -32.862282
LeftShoulder -30.966312 -14.502466 64.036923
LeftArm 65.396678 -55.652870 -29.188770
LeftForeArm 21.306800 0.000000 12.663133
LeftHand -0.066821 -0.000000 18.544261
LeftHandThumb1 -26.253704 0.000000 33.147579
Head 7.148864 39.036961 48.815086
829
root -13.737886 14.708998 -9.276625 23.493238 -29.210709 27.666587
RightUpLeg -127.937982 -24.443046 -6.383354
RightLeg 137.286946 -0.000000 -0.000000
RightFoot -45.813151 -9.549903 6.298922
RightToeBase -2.268684 -0.000000 0.000000
LeftUpLeg -11.899872 36.761559 25.221033
LeftLeg 4.382177 -0.000000 -0.000000
LeftFoot -5.658277 13.036113 -42.572063
LeftToeBase 20.431633 -0.000000 -0.000000
Spine 13.676536 8.576790 27.860237
RightShoulder -2.182879 0.184657 -11.687238
RightArm 15.136695 41.412617 79.726848
RightForeArm -26.955238 -0.000000 36.608953
RightHand 28.981758 -0.000000 -88.975776
RightHandThumb1 -24.326973 -0.000000 -32.862282
LeftShoulder -30.955153 -14.397642 63.990843
LeftArm 65.279010 -55.663504 -29.040193
LeftForeArm 21.302661 -0.000000 12.645189
LeftHand -0.132381 0.000000 18.544009
LeftHandThumb1 -26.253704 0.000000 33.147579
Head 7.345235 39.104712 48.889438
830
root -13.738667 14.705957 -9.271914 23.516992 -29.223401 27.705570
RightUpLeg -127.989717 -24.457092 -6.407269
RightLeg 137.309606 -0.000000 -0.000000
RightFoot -45.831140 -9.541753 6.327700
RightToeBase -2.268140 -0.000000 0.000000
LeftUpLeg -11.927852 36.642150 25.192054
LeftLeg 4.420290 -0.000000 -0.000000
LeftFoot -5.771167 13.051274 -42.684654
LeftToeBase 20.531268 -0.000000 -0.000000
Spine 13.690525 8.570501 27.871329
RightShoulder -2.185063 0.175131 -11.735331
RightArm 15.087856 41.505092 79.847179
RightForeArm -27.000062 0.000000 36.875221
RightHand 28.969735 -0.000000 -88.877455
RightHandThumb1 -24.326973 -0.000000 -32.862282
LeftShoulder -30.922759 -14.404222 63.967814
LeftArm 65.127039 -55.659169 -28.870592
LeftForeArm 21.334565 -0.000000 12.634805
LeftHand -0.214367 -0.000000 18.501927
LeftHandThumb1 -26.253704 0.000000 33.147579
Head 7.405322 39.134199 48.907188
831
root -13.739432 14.702900 -9.267556 23.548610 -29.231173 27.718968
RightUpLeg -128.028092 -24.461506 -6.422536
RightLeg 137.327470 -0.000000 -0.000000
RightFoot -45.846242 -9.558433 6.335619
RightToeBase -2.257944 -0.000000 0.000000
LeftUpLeg -11.961213 36.555406 25.185710
LeftLeg 4.459484 -0.000000 -0.000000
LeftFoot -5.839102 13.121387 -42.696510
LeftToeBase 20.323541 -0.000000 -0.000000
Spine 13.704461 8.558790 27.916184
RightShoulder -2.186474 0.079630 -11.798006
RightArm 15.115822 41.621843 80.041904
RightForeArm -27.180796 -0.000000 37.193818
RightHand 28.984923 0.000000 -88.619650
RightHandThumb1 -24.326973 -0.000000 -32.862282
LeftShoulder -30.906023 -14.429259 63.971928
LeftArm 65.010582 -55.628816 -28.809311
LeftForeArm 21.346756 -0.000000 12.677342
LeftHand -0.123614 -0.000000 18.439938
LeftHandThumb1 -26.253704 0.000000 33.147579
Head 7.484765 39.049907 48.921127
832
root -13.741504 14.699474 -9.263749 23.585379 -29.242515 27.720444
RightUpLeg -128.055346 -24.445892 -6.436231
RightLeg 137.345933 -0.000000 -0.000000
RightFoot -45.875337 -9.536087 6.378200
RightToeBase -2.203197 -0.000000 0.000000
LeftUpLeg -11.990361 36.474279 25.195624
LeftLeg 4.503815 -0.000000 -0.000000
LeftFoot -5.914648 13.160707 -42.752150
LeftToeBase 20.298786 -0.000000 -0.000000
Spine 13.718905 8.537321 27.958950
RightShoulder -2.155562 0.024941 -11.838799
RightArm 15.088506 41.720086 80.172183
RightForeArm -27.281612 -0.000000 37.505498
RightHand 28.983878 0.000000 -88.417201
RightHandThumb1 -24.326973 -0.000000 -32.862282
LeftShoulder -30.889722 -14.428267 63.982950
LeftArm 64.954031 -55.623768 -28.805820
LeftForeArm 21.295683 0.000000 12.734072
LeftHand -0.471305 0.000000 18.509659
LeftHandThumb1 -26.253704 0.000000 33.147579
Head 7.582004 39.051132 48.982868
833
root -13.743377 14.695564 -9.262011 23.627661 -29.247263 27.717227
RightUpLeg -128.091023 -24.423801 -6.437709
RightLeg 137.360572 -0.000000 -0.000000
RightFoot -45.905362 -9.545087 6.434641
RightToeBase -2.198558 -0.000000 0.000000
LeftUpLeg -12.035863 36.354020 25.216734
LeftLeg 4.580395 -0.000000 -0.000000
LeftFoot -6.028533 13.198995 -42.872233
LeftToeBase 20.250886 -0.000000 -0.000000
Spine 13.740520 8.532675 28.001175
RightShoulder -2.186547 -0.065524 -11.857287
RightArm 15.131514 41.745200 80.312492
RightForeArm -27.311478 -0.000000 37.811913
RightHand 28.976726 0.000000 -88.178802
RightHandThumb1 -24.326973 -0.000000 -32.862282
LeftShoulder -30.871203 -14.441415 64.009838
LeftArm 64.871857 -55.640307 -28.781729
LeftForeArm 21.240608 -0.000000 12.758752
LeftHand -0.463360 -0.000000 18.549755
LeftHandThumb1 -26.253704 0.000000 33.147579
Head 7.624629 39.046811 49.023799
834
root -13.745778 14.692151 -9.259714 23.687135 -29.251746 27.707037
RightUpLeg -128.137697 -24.403211 -6.428047
RightLeg 137.377029 -0.000000 -0.000000
RightFoot -45.927237 -9.580960 6.458037
RightToeBase -2.167459 -0.000000 0.000000
LeftUpLeg -12.098756 36.282211 25.223588
LeftLeg 4.652821 -0.000000 -0.000000
LeftFoot -6.122332 13.222762 -42.962566
LeftToeBase 20.269246 -0.000000 -0.000000
Spine 13.746903 8.544364 28.055726
RightShoulder -2.210551 -0.109376 -11.854608
RightArm 15.103976 41.770622 80.371863
RightForeArm -27.323359 -0.000000 38.127984
RightHand 28.913085 -0.000000 -88.115038
RightHandThumb1 -24.326973 -0.000000 -32.862282
LeftShoulder -30.844245 -14.458570 64.020339
LeftArm 64.766151 -55.669239 -28.715868
LeftForeArm 21.189255 0.000000 12.798323
LeftHand -0.814989 -0.000000 18.625921
LeftHandThumb1 -26.253704 0.000000 33.147579
Head 7.646324 39.007500 49.058474
835
root -13.748340 14.688688 -9.256017 23.720389 -29.261809 27.709113
RightUpLeg -128.163551 -24.391389 -6.439928
RightLeg 137.395020 -0.000000 -0.000000
RightFoot -45.949353 -9.588144 6.475451
RightToeBase -2.198745 -0.000000 0.000000
LeftUpLeg -12.131680 36.251109 25.222093
LeftLeg 4.706198 -0.000000 -0.000000
LeftFoot -6.187111 13.166244 -43.127057
LeftToeBase 20.387379 -0.000000 -0.000000
Spine 13.765451 8.543233 28.101149
RightShoulder -2.210771 -0.155152 -11.866469
RightArm 15.072133 41.847285 80.461314
RightForeArm -27.408454 -0.000000 38.438388
RightHand 28.870392 -0.000000 -87.988456
RightHandThumb1 -24.326973 -0.000000 -32.862282
LeftShoulder -30.794317 -14.449436 63.990682
LeftArm 64.668104 -55.736055 -28.632823
LeftForeArm 21.047008 0.000000 12.834528
LeftHand -0.978939 0.000000 18.624152
LeftHandThumb1 -26.253704 0.000000 33.147579
Head 7.691732 38.914383 49.120751
836
root -13.750798 14.684759 -9.251797 23.758982 -29.270875 27.702297
RightUpLeg -128.189849 -24.376457 -6.437090
RightLeg 137.413572 -0.000000 -0.000000
RightFoot -45.968970 -9.587346 6.502385
RightToeBase -2.217534 -0.000000 0.000000
LeftUpLeg -12.165019 36.302316 25.210626
LeftLeg 4.733318 -0.000000 -0.000000
LeftFoot -6.177538 13.101801 -43.149299
LeftToeBase 20.337584 -0.000000 -0.000000
Spine 13.789848 8.515144 28.145023
RightShoulder -2.235327 -0.171188 -11.874725
RightArm 15.061486 41.884830 80.556064
RightForeArm -27.511571 0.000000 38.729777
RightHand 28.878905 -0.000000 -87.842179
RightHandThumb1 -24.326973 -0.000000 -32.862282
LeftShoulder -30.781032 -14.474468 64.001546
LeftArm 64.557546 -55.750816 -28.540289
LeftForeArm 20.929931 -0.000000 12.858895
LeftHand -1.143304 -0.000000 18.729604
LeftHandThumb1 -26.253704 0.000000 33.147579
Head 7.737199 38.943309 49.181890
